M48
; DRILL file {KiCad 8.0.8} date 2025-02-10T09:27:44+0100
; FORMAT={-:-/ absolute / metric / decimal}
; #@! TF.CreationDate,2025-02-10T09:27:44+01:00
; #@! TF.GenerationSoftware,Kicad,Pcbnew,8.0.8
; #@! TF.FileFunction,Plated,1,2,PTH
FMAT,2
METRIC
; #@! TA.AperFunction,Plated,PTH,ViaDrill
T1C0.300
; #@! TA.AperFunction,Plated,PTH,ComponentDrill
T2C0.700
; #@! TA.AperFunction,Plated,PTH,ComponentDrill
T3C0.800
; #@! TA.AperFunction,Plated,PTH,ComponentDrill
T4C0.950
; #@! TA.AperFunction,Plated,PTH,ComponentDrill
T5C1.000
; #@! TA.AperFunction,Plated,PTH,ComponentDrill
T6C1.200
; #@! TA.AperFunction,Plated,PTH,ComponentDrill
T7C1.500
; #@! TA.AperFunction,Plated,PTH,ComponentDrill
T8C4.550
%
G90
G05
T1
X106.0Y-64.0
X106.172Y-118.999
X106.426Y-101.346
X106.426Y-104.013
X106.426Y-120.777
X106.5Y-68.5
X106.68Y-66.929
X106.807Y-107.442
X106.807Y-116.84
X107.0Y-74.5
X107.0Y-78.0
X107.0Y-82.5
X107.0Y-86.0
X107.0Y-123.0
X107.061Y-62.738
X107.569Y-110.236
X108.0Y-121.5
X108.204Y-105.283
X108.585Y-68.58
X109.0Y-86.5
X109.093Y-77.216
X109.093Y-99.314
X109.22Y-81.28
X109.5Y-68.0
X109.728Y-122.047
X110.363Y-108.712
X110.49Y-87.376
X110.617Y-92.964
X110.617Y-94.996
X110.871Y-82.169
X110.998Y-84.582
X110.998Y-111.125
X111.0Y-63.0
X111.125Y-120.777
X111.379Y-97.917
X111.5Y-66.0
X111.5Y-122.0
X111.506Y-117.094
X112.0Y-55.0
X112.649Y-98.933
X112.649Y-100.203
X113.0Y-52.0
X113.0Y-124.0
X113.03Y-62.992
X113.03Y-65.151
X113.03Y-85.979
X113.157Y-88.392
X113.157Y-91.059
X113.157Y-109.728
X113.284Y-83.312
X113.284Y-94.361
X113.411Y-68.707
X113.411Y-82.042
X113.411Y-92.456
X113.5Y-119.0
X113.5Y-127.5
X113.538Y-95.885
X114.0Y-54.5
X114.173Y-104.521
X114.554Y-64.008
X114.681Y-62.611
X114.681Y-97.409
X114.808Y-105.156
X114.808Y-108.331
X115.0Y-52.5
X115.0Y-68.0
X115.062Y-82.169
X115.316Y-98.933
X115.316Y-100.457
X115.5Y-55.0
X115.5Y-80.0
X115.5Y-111.0
X115.57Y-69.342
X115.824Y-106.426
X116.0Y-74.0
X116.0Y-78.0
X116.0Y-83.5
X116.0Y-123.5
X116.078Y-75.692
X116.459Y-70.104
X116.5Y-68.0
X116.586Y-57.023
X116.586Y-71.882
X116.713Y-94.742
X116.84Y-107.442
X117.2Y-62.8
X117.221Y-82.042
X117.348Y-128.143
X117.475Y-79.756
X117.475Y-88.646
X117.5Y-69.0
X117.5Y-112.5
X117.729Y-109.728
X117.983Y-114.046
X118.0Y-52.0
X118.491Y-63.881
X118.491Y-83.439
X118.491Y-103.251
X118.618Y-99.568
X118.745Y-96.52
X118.872Y-107.823
X119.0Y-113.5
X119.253Y-71.882
X119.253Y-80.518
X119.38Y-92.456
X119.38Y-128.905
X119.5Y-67.0
X119.5Y-74.0
X119.507Y-110.744
X119.507Y-115.189
X120.396Y-85.471
X120.5Y-63.5
X120.5Y-81.0
X120.777Y-109.22
X121.0Y-69.0
X121.0Y-112.0
X121.0Y-114.0
X121.031Y-89.662
X121.285Y-72.009
X121.285Y-94.869
X121.285Y-128.905
X121.412Y-82.042
X121.666Y-56.642
X121.793Y-114.935
X121.92Y-74.295
X121.92Y-86.868
X121.92Y-98.044
X122.0Y-77.0
X122.0Y-110.5
X122.0Y-121.0
X122.047Y-105.537
X122.428Y-82.931
X122.428Y-100.076
X122.809Y-107.95
X123.0Y-67.0
X123.063Y-56.642
X123.19Y-91.567
X123.444Y-84.201
X123.5Y-112.0
X123.5Y-123.0
X123.698Y-105.41
X123.698Y-113.538
X123.952Y-127.762
X124.0Y-69.5
X124.333Y-71.882
X124.333Y-94.361
X124.46Y-87.757
X124.5Y-74.5
X124.5Y-78.5
X124.5Y-98.5
X124.5Y-101.5
X124.5Y-108.5
X124.968Y-123.571
X125.0Y-55.0
X125.0Y-63.5
X125.095Y-111.76
X125.222Y-85.217
X125.349Y-53.975
X125.5Y-69.5
X125.5Y-96.0
X125.603Y-72.009
X125.603Y-105.537
X126.111Y-125.984
X126.238Y-52.451
X126.365Y-110.871
X126.5Y-76.5
X126.5Y-81.5
X126.5Y-95.0
X126.5Y-100.0
X126.619Y-90.424
X126.619Y-121.793
X126.746Y-92.71
X126.873Y-87.63
X126.873Y-107.95
X127.0Y-55.0
X127.0Y-66.5
X127.0Y-74.0
X127.0Y-102.5
X127.0Y-115.0
X127.127Y-85.344
X127.381Y-109.474
X127.5Y-68.5
X127.5Y-79.5
X127.5Y-98.0
X127.5Y-104.5
X127.508Y-69.977
X127.889Y-105.41
X128.016Y-124.206
X128.27Y-120.523
X128.397Y-85.344
X129.0Y-63.5
X129.0Y-75.5
X129.0Y-90.5
X129.0Y-95.0
X129.0Y-112.0
X129.286Y-71.501
X129.286Y-107.95
X129.5Y-53.5
X129.5Y-66.5
X129.5Y-88.0
X129.5Y-97.5
X129.5Y-101.0
X129.5Y-105.5
X129.667Y-92.329
X129.667Y-122.301
X130.0Y-73.0
X130.0Y-77.5
X130.0Y-80.0
X130.0Y-115.0
X130.175Y-70.485
X130.5Y-82.5
X130.5Y-85.5
X131.0Y-55.0
X131.0Y-63.5
X131.318Y-120.65
X131.5Y-123.5
X131.699Y-52.578
X131.826Y-69.088
X132.0Y-114.0
X132.3Y-66.3
X132.334Y-115.316
X132.334Y-123.825
X133.096Y-113.919
X133.35Y-69.088
X133.477Y-122.936
X133.5Y-121.0
X134.112Y-97.917
X134.112Y-105.537
X134.112Y-121.666
X134.239Y-95.25
X134.239Y-100.457
X134.239Y-102.997
X134.239Y-112.649
X134.239Y-125.603
X134.366Y-108.077
X134.5Y-54.5
X134.62Y-66.929
X135.001Y-52.451
X135.255Y-114.935
X135.45Y-69.45
X135.763Y-124.333
X136.017Y-93.472
X136.017Y-111.379
X136.144Y-81.407
X136.144Y-83.82
X136.144Y-85.725
X136.144Y-88.265
X136.144Y-97.663
X136.144Y-99.314
X136.144Y-104.648
X136.144Y-106.045
X136.144Y-107.442
X136.144Y-113.792
X136.144Y-115.824
X136.144Y-120.523
X136.144Y-121.539
X136.271Y-90.424
X136.271Y-94.615
X136.271Y-96.139
X136.271Y-100.711
X136.271Y-102.997
X136.632Y-110.597
X137.0Y-55.0
X137.033Y-109.347
X137.16Y-107.95
X137.16Y-114.935
X137.287Y-80.264
X137.541Y-78.486
X137.668Y-75.057
X137.668Y-76.708
X137.795Y-68.199
X137.795Y-73.787
X137.795Y-84.709
X137.795Y-87.757
X137.922Y-82.804
X137.922Y-109.474
X138.176Y-113.665
X138.176Y-122.555
X138.176Y-124.46
X138.303Y-108.458
X138.303Y-120.523
X138.43Y-88.9
X138.43Y-112.014
X138.5Y-101.0
X138.5Y-104.0
X138.938Y-115.443
X139.0Y-63.0
X139.0Y-86.0
X139.0Y-96.0
X139.0Y-121.5
X139.319Y-107.823
X139.5Y-54.5
X139.5Y-98.0
X139.5Y-123.0
X139.573Y-90.297
X139.954Y-73.533
X139.954Y-110.363
X140.0Y-66.5
X140.0Y-93.5
X140.0Y-102.0
X140.0Y-106.0
X140.081Y-52.451
X140.081Y-76.073
X140.081Y-84.836
X140.208Y-87.376
X140.208Y-113.538
X140.335Y-70.866
X140.335Y-115.443
X140.5Y-80.0
X140.716Y-85.725
X140.716Y-111.379
X140.843Y-91.567
X140.843Y-100.076
X140.97Y-93.853
X140.97Y-109.22
X141.0Y-74.5
X141.0Y-77.5
X141.0Y-126.0
X141.097Y-96.393
X141.351Y-83.82
X141.478Y-69.977
X141.605Y-66.675
X141.859Y-72.263
X141.986Y-113.284
X142.0Y-54.5
X142.0Y-81.5
X142.0Y-104.0
X142.0Y-122.0
X142.24Y-115.57
X142.5Y-63.0
X142.621Y-76.327
X142.875Y-82.296
X143.0Y-87.5
X143.0Y-89.5
X143.0Y-94.5
X143.0Y-96.5
X143.0Y-98.5
X143.0Y-101.0
X143.0Y-103.5
X143.002Y-92.837
X143.002Y-108.331
X143.129Y-73.787
X143.129Y-106.807
X143.129Y-110.363
X143.256Y-85.217
X143.5Y-71.0
X143.5Y-78.0
X143.764Y-114.681
X144.0Y-79.5
X144.0Y-86.0
X144.145Y-80.899
X144.272Y-66.929
X144.272Y-83.947
X144.272Y-106.045
X144.78Y-75.184
X144.78Y-111.252
X145.0Y-72.5
X145.0Y-100.0
X145.0Y-103.0
X145.034Y-115.57
X145.1Y-113.9
X145.288Y-69.977
X145.288Y-108.839
X145.3Y-93.6
X145.4Y-91.6
X145.415Y-112.522
X145.5Y-63.0
X145.5Y-78.0
X145.5Y-84.0
X145.5Y-89.0
X145.5Y-90.5
X145.5Y-96.0
X145.5Y-98.0
X145.5Y-106.5
X145.923Y-82.423
X146.0Y-122.0
X146.05Y-66.802
X147.0Y-115.0
X147.375Y-121.3
X147.5Y-113.0
X148.0Y-63.0
X148.0Y-123.0
X148.082Y-66.802
X149.098Y-115.189
X149.479Y-112.776
X149.479Y-120.523
X149.5Y-121.5
X149.606Y-107.188
X149.606Y-109.982
X149.987Y-52.578
X149.987Y-104.394
X150.0Y-54.0
X150.0Y-66.5
X150.1Y-84.8
X150.241Y-93.599
X150.241Y-125.476
X150.368Y-95.377
X150.368Y-127.508
X150.495Y-97.282
X150.5Y-55.5
X150.5Y-72.0
X150.5Y-75.0
X150.5Y-77.5
X150.5Y-80.5
X150.6Y-84.0
X150.622Y-105.283
X150.625Y-115.225
X150.749Y-123.317
X150.876Y-66.675
X151.0Y-99.0
X151.0Y-103.0
X151.257Y-64.897
X151.3Y-88.5
X151.384Y-106.045
X151.625Y-112.275
X151.625Y-115.2
X151.765Y-107.188
X151.765Y-108.966
X152.4Y-87.503
X152.527Y-88.9
X152.527Y-94.488
X152.654Y-93.472
X152.654Y-110.236
X152.654Y-127.635
X152.781Y-95.758
X152.781Y-111.506
X152.781Y-114.935
X152.908Y-112.776
X153.035Y-68.326
X153.035Y-77.343
X153.035Y-81.534
X153.035Y-84.709
X153.162Y-66.802
X153.162Y-74.168
X153.35Y-70.15
X153.35Y-71.35
X153.4Y-72.8
X153.5Y-58.5
X153.7Y-107.0
X153.8Y-88.6
X154.0Y-55.0
X154.0Y-100.0
X154.305Y-120.396
X154.432Y-112.776
X154.5Y-59.5
X154.813Y-87.376
X154.94Y-61.214
X154.94Y-82.804
X155.0Y-58.0
X155.0Y-104.0
X155.067Y-76.2
X155.067Y-79.756
X155.194Y-52.451
X155.194Y-92.964
X155.3Y-108.4
X155.321Y-121.285
X155.5Y-59.5
X155.829Y-101.6
X155.956Y-94.361
X156.0Y-55.0
X156.337Y-100.711
X156.464Y-122.428
X156.845Y-95.123
X156.9Y-109.9
X157.0Y-108.0
X157.226Y-117.221
X157.5Y-59.0
X157.5Y-63.5
X158.0Y-54.0
X158.0Y-99.0
X158.496Y-57.15
X158.496Y-118.364
X158.5Y-62.5
X158.5Y-104.5
X158.623Y-100.711
X158.75Y-61.087
X159.004Y-115.443
X159.385Y-90.551
X159.4Y-58.6
X159.512Y-84.455
X159.766Y-87.63
X159.766Y-119.888
X160.0Y-61.5
X160.0Y-102.0
X160.147Y-59.436
X160.147Y-98.552
X160.147Y-107.061
X160.147Y-116.586
X160.5Y-54.5
X160.528Y-55.753
X160.909Y-52.578
X161.0Y-105.0
X161.036Y-92.456
X161.036Y-120.904
X161.5Y-72.5
X161.544Y-117.729
X161.798Y-99.695
X162.0Y-58.5
X162.0Y-113.5
X162.052Y-53.34
X162.306Y-57.531
X162.306Y-93.345
X162.306Y-121.92
X162.45Y-55.55
X162.56Y-118.999
X162.814Y-104.521
X162.9Y-115.8
X163.449Y-94.615
X163.5Y-111.5
X163.576Y-93.218
X163.576Y-123.317
X163.703Y-84.074
X163.957Y-52.832
X163.957Y-82.169
X164.084Y-85.725
X164.084Y-87.122
X164.084Y-120.269
X164.211Y-88.392
X164.211Y-90.297
X164.338Y-95.885
X164.338Y-124.587
X164.5Y-55.5
X164.592Y-92.456
X164.592Y-94.361
X164.592Y-109.982
X164.6Y-100.9
X164.6Y-102.7
X165.0Y-59.5
X165.0Y-115.0
X165.1Y-121.539
X165.481Y-125.476
X165.5Y-55.5
X165.5Y-58.5
X165.5Y-112.0
X165.8Y-117.0
X165.989Y-52.705
X166.0Y-60.5
X166.497Y-122.682
X167.0Y-55.5
X167.5Y-59.5
X167.894Y-123.952
X168.0Y-118.0
X168.4Y-115.6
X168.5Y-62.0
X169.0Y-58.5
X169.418Y-92.202
X169.5Y-120.0
X169.545Y-93.472
X169.672Y-84.582
X169.672Y-86.614
X169.672Y-90.424
X169.672Y-106.426
X169.799Y-88.392
X169.8Y-103.2
X170.0Y-122.5
X170.053Y-95.377
X170.434Y-96.901
X170.688Y-108.077
X170.815Y-106.68
X171.0Y-57.0
X171.0Y-61.0
X171.0Y-81.5
X171.2Y-103.2
X171.45Y-97.028
X171.5Y-69.5
X171.5Y-84.0
X171.577Y-123.571
X172.0Y-122.0
X172.085Y-106.553
X172.2Y-118.4
X172.212Y-109.728
X172.339Y-128.397
X172.5Y-51.5
X172.7Y-103.1
X172.847Y-97.155
X173.482Y-85.725
X173.736Y-111.125
X174.0Y-102.8
X174.117Y-105.029
X174.244Y-97.536
X174.5Y-56.0
X174.5Y-61.0
X174.5Y-68.0
X174.625Y-86.741
X175.0Y-123.5
X175.006Y-112.395
X175.3Y-102.8
X175.5Y-52.0
X175.641Y-97.663
X175.768Y-105.156
X175.768Y-125.984
X176.5Y-54.0
X176.5Y-61.5
X176.6Y-102.7
X176.9Y-113.4
X177.0Y-125.0
X177.0Y-127.0
X177.419Y-105.664
X177.5Y-61.0
X177.546Y-87.503
X178.0Y-56.5
X178.0Y-59.0
X178.0Y-122.5
X178.435Y-62.23
X178.435Y-93.218
X178.5Y-52.0
X178.689Y-110.998
X178.943Y-114.935
X179.451Y-86.741
X179.5Y-58.0
X179.5Y-68.0
X180.0Y-121.5
X180.086Y-106.045
X180.848Y-93.853
X181.102Y-101.346
X181.102Y-109.855
X181.229Y-86.106
X181.229Y-95.123
X181.356Y-105.029
X181.483Y-97.409
X181.483Y-99.441
X181.483Y-102.87
X181.864Y-77.851
X182.118Y-80.264
X182.245Y-83.82
X183.0Y-77.0
X183.134Y-110.998
X183.261Y-61.976
X183.388Y-115.189
X183.5Y-58.5
X183.5Y-60.0
X183.5Y-63.0
X183.5Y-69.5
X183.5Y-81.0
X183.5Y-86.0
T2
X120.2Y-101.62
X120.2Y-106.7
T3
X132.0Y-126.0
X137.08Y-126.0
X152.62Y-102.9
X152.72Y-97.4
X157.7Y-102.9
X157.8Y-97.4
T4
X152.55Y-125.375
X155.05Y-125.375
X157.55Y-125.375
X160.05Y-125.375
X178.7Y-96.4
X178.7Y-98.9
X178.7Y-101.4
X178.7Y-103.9
T5
X108.92Y-71.0
X109.0Y-75.0
X109.0Y-79.0
X109.0Y-102.6
X111.46Y-71.0
X111.54Y-75.0
X111.54Y-79.0
X114.0Y-71.0
X114.0Y-102.6
X114.08Y-75.0
X114.08Y-79.0
X116.92Y-126.0
X117.92Y-54.0
X119.46Y-126.0
X120.46Y-54.0
X122.0Y-126.0
X123.0Y-54.0
X162.0Y-80.0
X164.0Y-64.0
X164.0Y-69.0
X167.0Y-80.0
X167.92Y-54.0
X167.92Y-126.0
X170.46Y-54.0
X170.46Y-126.0
X173.0Y-54.0
X173.0Y-126.0
T6
X132.8Y-71.16
X132.8Y-73.7
X132.8Y-76.24
X132.8Y-78.78
X132.8Y-81.32
X132.8Y-83.86
X132.8Y-86.4
X132.8Y-88.94
X132.8Y-91.48
X132.8Y-94.02
X132.8Y-96.56
X132.8Y-99.1
X132.8Y-101.64
X132.8Y-104.18
X132.8Y-106.72
X132.8Y-109.26
X147.862Y-71.153
X147.862Y-73.693
X147.862Y-76.233
X147.862Y-78.773
X147.862Y-81.313
X147.862Y-83.853
X147.862Y-86.393
X147.862Y-88.933
X147.862Y-91.473
X147.862Y-94.013
X147.862Y-96.553
X147.862Y-99.093
X147.862Y-101.633
X147.862Y-104.173
X147.862Y-106.713
X147.862Y-109.253
T7
X109.0Y-60.02
X109.0Y-65.1
X109.0Y-113.9
X109.0Y-118.98
X181.0Y-60.02
X181.0Y-65.1
X181.2Y-113.0
X181.2Y-118.08
T8
X177.0Y-73.8
X177.0Y-81.0
M30
