%TF.GenerationSoftware,KiCad,Pcbnew,8.0.8*%
%TF.CreationDate,2025-02-10T09:27:38+01:00*%
%TF.ProjectId,Ares_v1_BaseBoard,41726573-5f76-4315-9f42-617365426f61,rev?*%
%TF.SameCoordinates,Original*%
%TF.FileFunction,Soldermask,Bot*%
%TF.FilePolarity,Negative*%
%FSLAX46Y46*%
G04 Gerber Fmt 4.6, Leading zero omitted, Abs format (unit mm)*
G04 Created by KiCad (PCBNEW 8.0.8) date 2025-02-10 09:27:38*
%MOMM*%
%LPD*%
G01*
G04 APERTURE LIST*
G04 Aperture macros list*
%AMRoundRect*
0 Rectangle with rounded corners*
0 $1 Rounding radius*
0 $2 $3 $4 $5 $6 $7 $8 $9 X,Y pos of 4 corners*
0 Add a 4 corners polygon primitive as box body*
4,1,4,$2,$3,$4,$5,$6,$7,$8,$9,$2,$3,0*
0 Add four circle primitives for the rounded corners*
1,1,$1+$1,$2,$3*
1,1,$1+$1,$4,$5*
1,1,$1+$1,$6,$7*
1,1,$1+$1,$8,$9*
0 Add four rect primitives between the rounded corners*
20,1,$1+$1,$2,$3,$4,$5,0*
20,1,$1+$1,$4,$5,$6,$7,0*
20,1,$1+$1,$6,$7,$8,$9,0*
20,1,$1+$1,$8,$9,$2,$3,0*%
G04 Aperture macros list end*
%ADD10C,2.200000*%
%ADD11C,1.524000*%
%ADD12C,1.200000*%
%ADD13RoundRect,0.250000X0.600000X0.725000X-0.600000X0.725000X-0.600000X-0.725000X0.600000X-0.725000X0*%
%ADD14O,1.700000X1.950000*%
%ADD15C,3.000000*%
%ADD16C,1.800000*%
%ADD17R,1.800000X1.800000*%
%ADD18R,2.000000X2.000000*%
%ADD19C,2.000000*%
%ADD20C,6.204000*%
%ADD21RoundRect,0.102000X-3.000000X3.000000X-3.000000X-3.000000X3.000000X-3.000000X3.000000X3.000000X0*%
%ADD22RoundRect,0.250000X-0.725000X0.600000X-0.725000X-0.600000X0.725000X-0.600000X0.725000X0.600000X0*%
%ADD23O,1.950000X1.700000*%
G04 APERTURE END LIST*
D10*
%TO.C,REF\u002A\u002A*%
X109000000Y-126000000D03*
%TD*%
D11*
%TO.C,D2*%
X157700000Y-102900000D03*
X152620000Y-102900000D03*
%TD*%
%TO.C,J22*%
X109000000Y-75000000D03*
X111540000Y-75000000D03*
X114080000Y-75000000D03*
%TD*%
D12*
%TO.C,J2*%
X161650000Y-123375000D03*
D13*
X160050000Y-125375000D03*
D14*
X157550000Y-125375000D03*
X155050000Y-125375000D03*
X152550000Y-125375000D03*
%TD*%
D15*
%TO.C,J14*%
X181200000Y-118080000D03*
X181200000Y-113000000D03*
%TD*%
D11*
%TO.C,C2*%
X120200000Y-106700000D03*
X120200000Y-101620000D03*
%TD*%
D16*
%TO.C,U1*%
X132800000Y-109260000D03*
X147862200Y-109252800D03*
D17*
X147862200Y-71152800D03*
D16*
X147862200Y-73692800D03*
X147862200Y-76232800D03*
X147862200Y-78772800D03*
X147862200Y-81312800D03*
X147862200Y-83852800D03*
X147862200Y-86392800D03*
X147862200Y-88932800D03*
X147862200Y-91472800D03*
X147862200Y-94012800D03*
X147862200Y-96552800D03*
X132800000Y-101640000D03*
X147862200Y-101632800D03*
X147862200Y-104172800D03*
X147862200Y-106712800D03*
X132800000Y-106720000D03*
X132800000Y-104180000D03*
X147862200Y-99092800D03*
X132800000Y-99100000D03*
X132800000Y-96560000D03*
X132800000Y-94020000D03*
X132800000Y-91480000D03*
X132800000Y-88940000D03*
X132800000Y-86400000D03*
X132800000Y-83860000D03*
X132800000Y-81320000D03*
X132800000Y-78780000D03*
X132800000Y-76240000D03*
X132800000Y-73700000D03*
D17*
X132800000Y-71160000D03*
%TD*%
D10*
%TO.C,REF\u002A\u002A*%
X145000000Y-126000000D03*
%TD*%
D15*
%TO.C,J13*%
X181000000Y-65100000D03*
X181000000Y-60020000D03*
%TD*%
D10*
%TO.C,REF\u002A\u002A*%
X109000000Y-54000000D03*
%TD*%
D18*
%TO.C,C1*%
X167000000Y-80000000D03*
D19*
X162000000Y-80000000D03*
%TD*%
D15*
%TO.C,J21*%
X109000000Y-113900000D03*
X109000000Y-118980000D03*
%TD*%
D11*
%TO.C,D1*%
X157800000Y-97400000D03*
X152720000Y-97400000D03*
%TD*%
D10*
%TO.C,REF\u002A\u002A*%
X181000000Y-90000000D03*
%TD*%
D11*
%TO.C,J5*%
X167920000Y-54000000D03*
X170460000Y-54000000D03*
X173000000Y-54000000D03*
%TD*%
D10*
%TO.C,REF\u002A\u002A*%
X181000000Y-126000000D03*
%TD*%
D20*
%TO.C,J15*%
X177000000Y-81000000D03*
D21*
X177000000Y-73800000D03*
%TD*%
D15*
%TO.C,J20*%
X109000000Y-60020000D03*
X109000000Y-65100000D03*
%TD*%
D18*
%TO.C,C4*%
X164000000Y-69000000D03*
D19*
X164000000Y-64000000D03*
%TD*%
D11*
%TO.C,J12*%
X116920000Y-126000000D03*
X119460000Y-126000000D03*
X122000000Y-126000000D03*
%TD*%
%TO.C,J3*%
X108920000Y-71000000D03*
X111460000Y-71000000D03*
X114000000Y-71000000D03*
%TD*%
D12*
%TO.C,J1*%
X176700000Y-94800000D03*
D22*
X178700000Y-96400000D03*
D23*
X178700000Y-98900000D03*
X178700000Y-101400000D03*
X178700000Y-103900000D03*
%TD*%
D11*
%TO.C,J23*%
X109000000Y-79000000D03*
X111540000Y-79000000D03*
X114080000Y-79000000D03*
%TD*%
%TO.C,J10*%
X167920000Y-126000000D03*
X170460000Y-126000000D03*
X173000000Y-126000000D03*
%TD*%
D10*
%TO.C,REF\u002A\u002A*%
X109000000Y-90000000D03*
%TD*%
D11*
%TO.C,J27*%
X132000000Y-126000000D03*
X137080000Y-126000000D03*
%TD*%
D10*
%TO.C,REF\u002A\u002A*%
X145000000Y-54000000D03*
%TD*%
%TO.C,REF\u002A\u002A*%
X181000000Y-54000000D03*
%TD*%
D11*
%TO.C,J4*%
X117920000Y-54000000D03*
X120460000Y-54000000D03*
X123000000Y-54000000D03*
%TD*%
D18*
%TO.C,C3*%
X114000000Y-102600000D03*
D19*
X109000000Y-102600000D03*
%TD*%
M02*
