M48
; DRILL file {KiCad 8.0.8} date 2025-01-20T22:23:22+0100
; FORMAT={-:-/ absolute / metric / decimal}
; #@! TF.CreationDate,2025-01-20T22:23:22+01:00
; #@! TF.GenerationSoftware,Kicad,Pcbnew,8.0.8
; #@! TF.FileFunction,Plated,1,2,PTH
FMAT,2
METRIC
; #@! TA.AperFunction,Plated,PTH,ViaDrill
T1C0.300
; #@! TA.AperFunction,Plated,PTH,ComponentDrill
T2C0.700
; #@! TA.AperFunction,Plated,PTH,ComponentDrill
T3C0.800
; #@! TA.AperFunction,Plated,PTH,ComponentDrill
T4C1.000
; #@! TA.AperFunction,Plated,PTH,ComponentDrill
T5C1.200
; #@! TA.AperFunction,Plated,PTH,ComponentDrill
T6C4.550
%
G90
G05
T1
X106.0Y-64.0
X106.5Y-68.5
X107.0Y-74.5
X107.0Y-78.0
X107.0Y-82.5
X107.0Y-86.0
X107.0Y-95.0
X107.0Y-99.5
X107.0Y-103.0
X107.0Y-123.0
X107.5Y-110.5
X108.0Y-121.5
X109.0Y-86.5
X109.0Y-94.0
X109.5Y-68.0
X110.5Y-104.5
X110.5Y-110.0
X111.0Y-63.0
X111.5Y-66.0
X111.5Y-122.0
X112.0Y-55.0
X112.0Y-87.0
X112.0Y-100.5
X112.5Y-108.0
X112.5Y-109.5
X113.0Y-52.0
X113.0Y-124.0
X113.5Y-90.5
X113.5Y-119.0
X113.5Y-127.5
X114.0Y-54.5
X114.0Y-99.5
X114.5Y-87.5
X115.0Y-52.5
X115.0Y-68.0
X115.5Y-55.0
X115.5Y-64.5
X115.5Y-80.0
X115.5Y-91.0
X115.5Y-111.0
X116.0Y-74.0
X116.0Y-78.0
X116.0Y-83.5
X116.0Y-123.5
X116.5Y-68.0
X116.5Y-87.0
X117.0Y-95.0
X117.0Y-97.5
X117.5Y-69.0
X117.5Y-90.0
X117.5Y-112.5
X118.0Y-52.0
X119.0Y-96.0
X119.0Y-113.5
X119.5Y-67.0
X119.5Y-74.0
X119.5Y-85.0
X120.5Y-63.5
X120.5Y-81.0
X121.0Y-69.0
X121.0Y-96.0
X121.0Y-112.0
X121.0Y-114.0
X121.5Y-86.5
X122.0Y-73.0
X122.0Y-77.0
X122.0Y-97.5
X122.0Y-110.5
X122.0Y-121.0
X122.5Y-51.5
X122.5Y-91.0
X122.5Y-94.5
X123.0Y-67.0
X123.0Y-87.5
X123.5Y-83.5
X123.5Y-112.0
X123.5Y-123.0
X124.0Y-69.5
X124.5Y-74.5
X124.5Y-78.5
X124.5Y-84.5
X124.5Y-98.5
X124.5Y-101.5
X124.5Y-108.5
X125.0Y-55.0
X125.0Y-63.5
X125.0Y-88.0
X125.0Y-90.5
X125.5Y-69.5
X125.5Y-96.0
X126.0Y-85.5
X126.0Y-123.0
X126.0Y-125.0
X126.5Y-76.5
X126.5Y-81.5
X126.5Y-95.0
X126.5Y-100.0
X127.0Y-52.0
X127.0Y-55.0
X127.0Y-66.5
X127.0Y-74.0
X127.0Y-102.5
X127.0Y-115.0
X127.5Y-68.5
X127.5Y-79.5
X127.5Y-88.0
X127.5Y-98.0
X127.5Y-104.5
X128.0Y-85.5
X128.0Y-121.5
X129.0Y-63.5
X129.0Y-75.5
X129.0Y-90.5
X129.0Y-95.0
X129.0Y-112.0
X129.0Y-128.0
X129.5Y-53.5
X129.5Y-66.5
X129.5Y-88.0
X129.5Y-97.5
X129.5Y-101.0
X129.5Y-105.5
X130.0Y-73.0
X130.0Y-77.5
X130.0Y-80.0
X130.0Y-93.0
X130.0Y-115.0
X130.5Y-82.5
X130.5Y-85.5
X131.0Y-55.0
X131.0Y-63.5
X131.0Y-65.0
X131.5Y-123.5
X132.0Y-114.0
X133.5Y-52.5
X133.5Y-121.0
X134.5Y-54.5
X134.5Y-100.0
X135.0Y-90.5
X135.0Y-95.5
X135.0Y-97.5
X135.0Y-101.5
X135.0Y-105.0
X135.0Y-107.5
X135.0Y-114.0
X135.0Y-115.5
X135.5Y-52.0
X135.5Y-83.0
X135.5Y-107.0
X136.0Y-76.5
X136.0Y-91.5
X136.0Y-110.0
X136.0Y-113.0
X136.5Y-74.0
X136.5Y-79.5
X136.5Y-85.5
X137.0Y-55.0
X137.0Y-71.0
X137.0Y-77.0
X137.0Y-83.0
X137.0Y-105.0
X137.5Y-88.5
X138.0Y-73.5
X138.0Y-107.0
X138.0Y-114.0
X138.5Y-101.0
X138.5Y-104.0
X139.0Y-63.0
X139.0Y-86.0
X139.0Y-91.0
X139.0Y-96.0
X139.0Y-114.0
X139.0Y-121.5
X139.0Y-127.5
X139.5Y-52.5
X139.5Y-54.5
X139.5Y-98.0
X139.5Y-123.0
X140.0Y-66.5
X140.0Y-93.5
X140.0Y-102.0
X140.0Y-106.0
X140.0Y-110.0
X140.5Y-80.0
X141.0Y-74.5
X141.0Y-77.5
X141.0Y-113.0
X141.0Y-115.0
X141.0Y-126.0
X141.5Y-68.5
X142.0Y-54.5
X142.0Y-81.5
X142.0Y-104.0
X142.0Y-122.0
X142.5Y-63.0
X143.0Y-87.5
X143.0Y-89.5
X143.0Y-94.5
X143.0Y-96.5
X143.0Y-98.5
X143.0Y-101.0
X143.0Y-103.5
X143.0Y-114.0
X143.5Y-71.0
X143.5Y-78.0
X143.5Y-108.5
X144.0Y-79.5
X144.0Y-86.0
X144.0Y-110.5
X144.5Y-69.0
X145.0Y-72.5
X145.0Y-100.0
X145.0Y-103.0
X145.0Y-109.0
X145.0Y-114.0
X145.5Y-63.0
X145.5Y-67.5
X145.5Y-78.0
X145.5Y-84.0
X145.5Y-89.0
X145.5Y-90.5
X145.5Y-92.0
X145.5Y-96.0
X145.5Y-98.0
X145.5Y-106.5
X146.0Y-94.0
X146.0Y-122.0
X147.0Y-115.0
X147.5Y-113.0
X148.0Y-63.0
X148.0Y-123.0
X148.5Y-51.0
X148.5Y-67.5
X149.0Y-127.0
X149.5Y-121.5
X150.0Y-54.0
X150.0Y-66.5
X150.0Y-68.5
X150.0Y-123.0
X150.5Y-55.5
X150.5Y-72.0
X150.5Y-75.0
X150.5Y-77.5
X150.5Y-80.5
X150.5Y-110.5
X150.5Y-113.0
X151.0Y-90.0
X151.0Y-99.0
X151.0Y-103.0
X151.5Y-53.5
X151.5Y-108.0
X152.0Y-82.0
X152.0Y-95.0
X152.0Y-114.5
X152.0Y-128.0
X152.5Y-120.5
X153.0Y-91.0
X153.0Y-112.5
X153.5Y-58.5
X154.0Y-55.0
X154.0Y-88.5
X154.0Y-100.0
X154.5Y-59.5
X154.5Y-70.0
X154.5Y-75.5
X154.5Y-79.5
X154.5Y-82.0
X154.5Y-111.0
X154.5Y-126.0
X155.0Y-52.0
X155.0Y-58.0
X155.0Y-84.5
X155.0Y-95.0
X155.0Y-104.0
X155.0Y-122.0
X155.5Y-59.5
X155.5Y-73.5
X155.5Y-90.0
X156.0Y-55.0
X156.0Y-86.0
X156.0Y-118.5
X157.0Y-108.0
X157.0Y-128.0
X157.5Y-59.0
X157.5Y-63.5
X157.5Y-77.0
X157.5Y-82.0
X157.5Y-92.0
X158.0Y-54.0
X158.0Y-72.5
X158.0Y-86.0
X158.0Y-99.0
X158.0Y-124.0
X158.5Y-62.5
X158.5Y-104.5
X158.5Y-121.0
X159.0Y-59.0
X159.0Y-89.0
X159.0Y-118.0
X159.0Y-128.0
X159.5Y-52.0
X159.5Y-74.5
X159.5Y-94.0
X159.5Y-116.0
X160.0Y-61.5
X160.0Y-102.0
X160.0Y-119.5
X160.5Y-54.5
X160.5Y-118.0
X161.0Y-86.5
X161.0Y-105.0
X161.0Y-123.5
X161.5Y-72.5
X162.0Y-58.5
X162.0Y-92.5
X162.0Y-96.5
X162.0Y-113.5
X162.0Y-120.0
X162.5Y-52.0
X162.5Y-90.0
X163.0Y-55.0
X163.0Y-124.5
X163.0Y-128.0
X163.5Y-111.5
X164.0Y-87.0
X164.0Y-89.5
X164.0Y-93.0
X164.5Y-52.5
X164.5Y-55.5
X164.5Y-95.5
X164.5Y-99.0
X164.5Y-102.5
X165.0Y-59.5
X165.0Y-115.0
X165.0Y-120.5
X165.5Y-55.5
X165.5Y-58.5
X165.5Y-109.5
X165.5Y-112.0
X165.5Y-124.5
X166.0Y-60.5
X166.5Y-51.5
X167.0Y-55.5
X167.0Y-108.0
X167.0Y-110.0
X167.5Y-59.5
X167.5Y-114.0
X168.0Y-118.0
X168.0Y-128.0
X168.5Y-62.0
X169.0Y-58.5
X169.5Y-96.0
X169.5Y-113.0
X169.5Y-120.0
X170.0Y-93.5
X170.0Y-102.5
X170.0Y-111.5
X170.0Y-122.5
X170.5Y-51.5
X170.5Y-87.0
X171.0Y-57.0
X171.0Y-61.0
X171.0Y-81.5
X171.0Y-92.0
X171.0Y-100.0
X171.0Y-115.0
X171.5Y-69.5
X171.5Y-84.0
X171.5Y-89.5
X172.0Y-95.0
X172.0Y-113.5
X172.0Y-118.0
X172.0Y-122.0
X172.5Y-51.5
X173.0Y-87.5
X173.0Y-102.0
X173.5Y-92.0
X174.0Y-100.0
X174.5Y-56.0
X174.5Y-61.0
X174.5Y-68.0
X174.5Y-106.0
X175.0Y-88.5
X175.0Y-94.5
X175.0Y-116.5
X175.0Y-123.5
X175.5Y-52.0
X176.0Y-119.0
X176.5Y-54.0
X176.5Y-61.5
X176.5Y-90.5
X176.5Y-93.0
X176.5Y-107.5
X177.0Y-100.0
X177.0Y-125.0
X177.0Y-127.0
X177.5Y-61.0
X178.0Y-56.5
X178.0Y-59.0
X178.0Y-122.5
X178.5Y-52.0
X179.0Y-94.0
X179.0Y-100.0
X179.0Y-107.0
X179.5Y-58.0
X179.5Y-68.0
X179.5Y-110.0
X180.0Y-121.5
X181.0Y-62.5
X181.5Y-100.0
X182.5Y-107.0
X183.0Y-77.0
X183.5Y-58.5
X183.5Y-60.0
X183.5Y-63.0
X183.5Y-69.5
X183.5Y-81.0
X183.5Y-86.0
X183.5Y-101.0
X183.5Y-109.5
T2
X109.066Y-102.174
X109.066Y-107.254
T3
X109.0Y-60.0
X109.0Y-65.08
X109.0Y-113.92
X109.0Y-119.0
X132.0Y-126.0
X137.08Y-126.0
X152.0Y-126.0
X157.08Y-126.0
X174.92Y-97.0
X175.0Y-104.0
X180.0Y-97.0
X180.08Y-104.0
X181.0Y-60.0
X181.0Y-65.08
X181.0Y-112.92
X181.0Y-118.0
T4
X108.92Y-71.0
X108.92Y-96.0
X109.0Y-75.0
X109.0Y-79.0
X109.0Y-83.0
X111.46Y-71.0
X111.46Y-96.0
X111.54Y-75.0
X111.54Y-79.0
X111.54Y-83.0
X114.0Y-71.0
X114.0Y-96.0
X114.08Y-75.0
X114.08Y-79.0
X114.08Y-83.0
X116.92Y-126.0
X117.92Y-54.0
X118.0Y-102.0
X118.0Y-107.0
X119.46Y-126.0
X120.46Y-54.0
X122.0Y-126.0
X123.0Y-54.0
X162.0Y-80.0
X164.0Y-64.0
X164.0Y-69.0
X167.0Y-80.0
X167.92Y-54.0
X167.92Y-126.0
X170.46Y-54.0
X170.46Y-126.0
X173.0Y-54.0
X173.0Y-126.0
T5
X132.938Y-71.227
X132.938Y-73.767
X132.938Y-76.307
X132.938Y-78.847
X132.938Y-81.387
X132.938Y-83.927
X132.938Y-86.467
X132.938Y-89.007
X132.938Y-91.547
X132.938Y-94.087
X132.938Y-96.627
X132.938Y-99.167
X132.938Y-101.707
X132.938Y-104.247
X132.938Y-106.787
X132.938Y-109.327
X148.0Y-71.22
X148.0Y-73.76
X148.0Y-76.3
X148.0Y-78.84
X148.0Y-81.38
X148.0Y-83.92
X148.0Y-86.46
X148.0Y-89.0
X148.0Y-91.54
X148.0Y-94.08
X148.0Y-96.62
X148.0Y-99.16
X148.0Y-101.7
X148.0Y-104.24
X148.0Y-106.78
X148.0Y-109.32
T6
X177.0Y-73.8
X177.0Y-81.0
M30
